<?xml version="1.0" standalone="no"?>
<!DOCTYPE svg PUBLIC "-//W3C//DTD SVG 20010904//EN"
 "http://www.w3.org/TR/2001/REC-SVG-20010904/DTD/svg10.dtd">
<svg version="1.0" xmlns="http://www.w3.org/2000/svg"
 width="514.000000pt" height="514.000000pt" viewBox="0 0 514.000000 514.000000"
 preserveAspectRatio="xMidYMid meet">
<metadata>
Created by potrace 1.14, written by Peter Selinger 2001-2017
</metadata>
<g transform="translate(0.000000,514.000000) scale(0.100000,-0.100000)"
fill="#000000" stroke="none">
<path d="M2503 5094 c-7 -3 -13 -9 -13 -13 0 -4 -18 -27 -39 -50 -22 -23 -45
-55 -51 -72 -7 -16 -16 -29 -20 -29 -4 0 -10 -13 -13 -29 -3 -16 -18 -41 -32
-56 -14 -16 -25 -34 -25 -42 0 -7 -4 -21 -9 -31 -5 -9 -30 -62 -56 -117 -26
-55 -58 -113 -71 -128 -13 -16 -24 -33 -24 -37 0 -21 -76 -117 -114 -145 -62
-45 -177 -113 -202 -119 -12 -3 -60 -28 -107 -56 -47 -27 -89 -50 -94 -50 -4
0 -20 -10 -36 -23 -15 -12 -52 -38 -82 -57 -30 -18 -57 -42 -61 -52 -3 -10 -9
-18 -13 -18 -26 0 -275 -248 -321 -320 -20 -30 -73 -94 -82 -98 -5 -2 -8 -9
-8 -16 0 -7 -12 -23 -26 -37 -14 -13 -33 -37 -43 -54 -10 -16 -37 -64 -61
-105 -24 -41 -49 -82 -56 -90 -10 -12 -96 -222 -99 -240 0 -3 -15 -35 -33 -73
-17 -37 -40 -102 -51 -145 -68 -266 -80 -311 -89 -329 -6 -11 -16 -86 -22
-168 -5 -81 -19 -182 -30 -225 -29 -114 -64 -167 -268 -404 -66 -77 -96 -152
-88 -221 7 -63 30 -94 91 -123 68 -33 135 -42 315 -42 99 -1 168 -5 191 -14
41 -15 109 -66 109 -82 0 -6 13 -17 30 -24 16 -7 32 -21 36 -32 3 -11 48 -62
100 -114 52 -51 94 -97 94 -102 0 -5 21 -23 48 -40 26 -17 73 -56 106 -86 32
-30 61 -54 65 -53 7 2 88 -51 115 -76 11 -9 27 -17 35 -17 9 0 32 -14 51 -30
19 -17 91 -57 160 -91 69 -33 143 -70 165 -81 22 -12 63 -27 90 -35 194 -50
235 -62 263 -74 18 -8 32 -17 32 -21 0 -5 8 -8 19 -8 23 0 109 -90 141 -148
15 -26 45 -57 80 -80 48 -32 62 -37 115 -37 50 0 67 5 104 30 24 16 63 55 85
86 42 57 100 124 127 146 8 6 77 28 154 48 77 20 145 40 150 45 6 4 26 11 45
15 19 4 44 13 55 19 11 7 38 19 60 26 63 20 244 110 315 157 100 66 210 147
210 156 0 4 9 7 19 7 11 0 22 8 26 18 3 11 21 32 41 48 19 16 45 40 57 53 12
14 32 35 45 48 12 13 22 27 22 30 0 3 17 25 38 48 20 23 45 53 55 66 154 206
128 193 382 197 l211 4 63 31 c134 68 146 186 37 357 -22 36 -45 73 -51 82 -5
8 -24 35 -41 59 -17 24 -47 86 -68 137 l-37 93 4 152 c3 84 1 202 -4 262 -12
150 -43 345 -55 353 -6 4 -16 33 -22 66 -7 32 -21 74 -33 92 -11 19 -18 41
-15 50 3 8 -3 41 -14 72 -11 31 -20 68 -20 82 0 14 -9 30 -20 38 -11 6 -26 27
-35 45 -18 40 -33 61 -67 100 -15 17 -34 45 -42 62 -8 17 -27 43 -41 59 -14
15 -31 40 -39 55 -8 15 -33 44 -55 64 -23 20 -41 41 -41 47 0 5 -4 10 -9 10
-5 0 -12 8 -15 18 -9 28 -195 208 -260 252 -32 22 -78 58 -101 79 -23 21 -52
42 -64 46 -11 3 -21 11 -21 16 0 5 -4 9 -9 9 -6 0 -30 14 -54 30 -25 17 -52
30 -60 30 -9 0 -19 5 -22 10 -4 6 -73 42 -153 81 -301 144 -354 173 -377 204
-20 27 -115 215 -115 228 0 11 -75 166 -118 242 -97 175 -120 194 -246 200
-45 3 -87 2 -93 -1z"/>
</g>
</svg>
